<mxfile host="app.diagrams.net" modified="2021-06-06T10:24:57.901Z" agent="5.0 (Windows NT 10.0; Win64; x64) AppleWebKit/537.36 (KHTML, like Gecko) Chrome/90.0.4430.212 Safari/537.36" etag="SrzNAbHnbk5F-QaYolE9" version="14.7.6" type="github">
  <diagram id="Hf4F8EhudIx9GHcKuJyu" name="Page-1">
    <mxGraphModel dx="2249" dy="762" grid="1" gridSize="10" guides="1" tooltips="1" connect="1" arrows="1" fold="1" page="1" pageScale="1" pageWidth="827" pageHeight="1169" math="0" shadow="0">
      <root>
        <mxCell id="0" />
        <mxCell id="1" parent="0" />
        <mxCell id="U3d2GX4V-Grrhq8g660X-55" style="edgeStyle=orthogonalEdgeStyle;rounded=0;orthogonalLoop=1;jettySize=auto;html=1;exitX=0.75;exitY=0;exitDx=0;exitDy=0;entryX=0;entryY=0.75;entryDx=0;entryDy=0;" edge="1" parent="1">
          <mxGeometry relative="1" as="geometry">
            <mxPoint x="223" y="420" as="sourcePoint" />
            <mxPoint x="299" y="357.5" as="targetPoint" />
            <Array as="points">
              <mxPoint x="224" y="358" />
            </Array>
          </mxGeometry>
        </mxCell>
        <mxCell id="U3d2GX4V-Grrhq8g660X-60" style="edgeStyle=orthogonalEdgeStyle;rounded=0;orthogonalLoop=1;jettySize=auto;html=1;exitX=0.5;exitY=1;exitDx=0;exitDy=0;entryX=0.5;entryY=0;entryDx=0;entryDy=0;" edge="1" parent="1" source="U3d2GX4V-Grrhq8g660X-3" target="U3d2GX4V-Grrhq8g660X-16">
          <mxGeometry relative="1" as="geometry" />
        </mxCell>
        <mxCell id="U3d2GX4V-Grrhq8g660X-3" value="MEMORY&lt;br&gt;&amp;lt;current&amp;gt;" style="rounded=1;whiteSpace=wrap;html=1;" vertex="1" parent="1">
          <mxGeometry x="160" y="420" width="120" height="60" as="geometry" />
        </mxCell>
        <mxCell id="U3d2GX4V-Grrhq8g660X-52" style="edgeStyle=orthogonalEdgeStyle;rounded=0;orthogonalLoop=1;jettySize=auto;html=1;exitX=1;exitY=0.5;exitDx=0;exitDy=0;entryX=0;entryY=0.25;entryDx=0;entryDy=0;" edge="1" parent="1" source="U3d2GX4V-Grrhq8g660X-6" target="U3d2GX4V-Grrhq8g660X-51">
          <mxGeometry relative="1" as="geometry" />
        </mxCell>
        <mxCell id="U3d2GX4V-Grrhq8g660X-6" value="비교기" style="rounded=1;whiteSpace=wrap;html=1;arcSize=0;" vertex="1" parent="1">
          <mxGeometry x="300" y="320" width="90" height="50" as="geometry" />
        </mxCell>
        <mxCell id="U3d2GX4V-Grrhq8g660X-11" value="1&lt;br&gt;2&lt;br&gt;3&lt;br&gt;4&lt;br&gt;5&lt;br&gt;6&lt;br&gt;7&lt;br&gt;&#39;s button" style="rounded=1;whiteSpace=wrap;html=1;arcSize=0;" vertex="1" parent="1">
          <mxGeometry x="-30" y="130" width="50" height="180" as="geometry" />
        </mxCell>
        <mxCell id="U3d2GX4V-Grrhq8g660X-48" style="edgeStyle=orthogonalEdgeStyle;rounded=0;orthogonalLoop=1;jettySize=auto;html=1;exitX=0.5;exitY=1;exitDx=0;exitDy=0;" edge="1" parent="1" source="U3d2GX4V-Grrhq8g660X-13">
          <mxGeometry relative="1" as="geometry">
            <mxPoint x="300" y="335" as="targetPoint" />
            <Array as="points">
              <mxPoint x="225" y="335" />
            </Array>
          </mxGeometry>
        </mxCell>
        <mxCell id="U3d2GX4V-Grrhq8g660X-13" value="ENCODE" style="rounded=1;whiteSpace=wrap;html=1;arcSize=0;" vertex="1" parent="1">
          <mxGeometry x="200" y="150" width="50" height="110" as="geometry" />
        </mxCell>
        <mxCell id="U3d2GX4V-Grrhq8g660X-14" value="7-Segment" style="rounded=1;whiteSpace=wrap;html=1;" vertex="1" parent="1">
          <mxGeometry x="145" y="660" width="150" height="60" as="geometry" />
        </mxCell>
        <mxCell id="U3d2GX4V-Grrhq8g660X-58" style="edgeStyle=orthogonalEdgeStyle;rounded=0;orthogonalLoop=1;jettySize=auto;html=1;exitX=0.5;exitY=1;exitDx=0;exitDy=0;entryX=0.5;entryY=0;entryDx=0;entryDy=0;" edge="1" parent="1" source="U3d2GX4V-Grrhq8g660X-16" target="U3d2GX4V-Grrhq8g660X-14">
          <mxGeometry relative="1" as="geometry" />
        </mxCell>
        <mxCell id="U3d2GX4V-Grrhq8g660X-16" value="DECODE" style="rounded=1;whiteSpace=wrap;html=1;arcSize=0;" vertex="1" parent="1">
          <mxGeometry x="160" y="535" width="120" height="60" as="geometry" />
        </mxCell>
        <mxCell id="U3d2GX4V-Grrhq8g660X-41" style="edgeStyle=orthogonalEdgeStyle;rounded=0;orthogonalLoop=1;jettySize=auto;html=1;exitX=1;exitY=0.5;exitDx=0;exitDy=0;entryX=0;entryY=0.25;entryDx=0;entryDy=0;" edge="1" parent="1" source="U3d2GX4V-Grrhq8g660X-18" target="U3d2GX4V-Grrhq8g660X-13">
          <mxGeometry relative="1" as="geometry" />
        </mxCell>
        <mxCell id="U3d2GX4V-Grrhq8g660X-18" value="1bit&lt;br&gt;기억소자" style="rounded=1;whiteSpace=wrap;html=1;" vertex="1" parent="1">
          <mxGeometry x="60" y="130" width="60" height="30" as="geometry" />
        </mxCell>
        <mxCell id="U3d2GX4V-Grrhq8g660X-21" style="edgeStyle=orthogonalEdgeStyle;rounded=0;orthogonalLoop=1;jettySize=auto;html=1;exitX=1;exitY=0.5;exitDx=0;exitDy=0;entryX=0.02;entryY=0.582;entryDx=0;entryDy=0;entryPerimeter=0;" edge="1" parent="1" source="U3d2GX4V-Grrhq8g660X-22" target="U3d2GX4V-Grrhq8g660X-13">
          <mxGeometry relative="1" as="geometry" />
        </mxCell>
        <mxCell id="U3d2GX4V-Grrhq8g660X-22" value="1bit&lt;br&gt;기억소자" style="rounded=1;whiteSpace=wrap;html=1;" vertex="1" parent="1">
          <mxGeometry x="60" y="240" width="60" height="30" as="geometry" />
        </mxCell>
        <mxCell id="U3d2GX4V-Grrhq8g660X-39" style="edgeStyle=orthogonalEdgeStyle;rounded=0;orthogonalLoop=1;jettySize=auto;html=1;exitX=1;exitY=0.5;exitDx=0;exitDy=0;entryX=0;entryY=0.75;entryDx=0;entryDy=0;" edge="1" parent="1" source="U3d2GX4V-Grrhq8g660X-24" target="U3d2GX4V-Grrhq8g660X-13">
          <mxGeometry relative="1" as="geometry">
            <Array as="points">
              <mxPoint x="180" y="295" />
              <mxPoint x="180" y="233" />
            </Array>
          </mxGeometry>
        </mxCell>
        <mxCell id="U3d2GX4V-Grrhq8g660X-24" value="1bit&lt;br&gt;기억소자" style="rounded=1;whiteSpace=wrap;html=1;" vertex="1" parent="1">
          <mxGeometry x="60" y="280" width="60" height="30" as="geometry" />
        </mxCell>
        <mxCell id="U3d2GX4V-Grrhq8g660X-30" value="" style="shape=tape;whiteSpace=wrap;html=1;" vertex="1" parent="1">
          <mxGeometry x="60" y="210" width="60" height="20" as="geometry" />
        </mxCell>
        <mxCell id="U3d2GX4V-Grrhq8g660X-40" style="edgeStyle=orthogonalEdgeStyle;rounded=0;orthogonalLoop=1;jettySize=auto;html=1;exitX=1;exitY=0.5;exitDx=0;exitDy=0;entryX=0;entryY=0.418;entryDx=0;entryDy=0;entryPerimeter=0;" edge="1" parent="1" source="U3d2GX4V-Grrhq8g660X-31" target="U3d2GX4V-Grrhq8g660X-13">
          <mxGeometry relative="1" as="geometry" />
        </mxCell>
        <mxCell id="U3d2GX4V-Grrhq8g660X-31" value="1bit&lt;br&gt;기억소자" style="rounded=1;whiteSpace=wrap;html=1;" vertex="1" parent="1">
          <mxGeometry x="60" y="170" width="60" height="30" as="geometry" />
        </mxCell>
        <mxCell id="U3d2GX4V-Grrhq8g660X-34" style="edgeStyle=orthogonalEdgeStyle;rounded=0;orthogonalLoop=1;jettySize=auto;html=1;entryX=0;entryY=0.5;entryDx=0;entryDy=0;" edge="1" parent="1">
          <mxGeometry relative="1" as="geometry">
            <mxPoint x="60" y="145" as="targetPoint" />
            <Array as="points">
              <mxPoint x="20" y="145" />
            </Array>
            <mxPoint x="20" y="145" as="sourcePoint" />
          </mxGeometry>
        </mxCell>
        <mxCell id="U3d2GX4V-Grrhq8g660X-35" style="edgeStyle=orthogonalEdgeStyle;rounded=0;orthogonalLoop=1;jettySize=auto;html=1;entryX=0;entryY=0.5;entryDx=0;entryDy=0;" edge="1" parent="1">
          <mxGeometry relative="1" as="geometry">
            <mxPoint x="60" y="249" as="targetPoint" />
            <Array as="points">
              <mxPoint x="20" y="249" />
            </Array>
            <mxPoint x="20" y="249" as="sourcePoint" />
          </mxGeometry>
        </mxCell>
        <mxCell id="U3d2GX4V-Grrhq8g660X-36" style="edgeStyle=orthogonalEdgeStyle;rounded=0;orthogonalLoop=1;jettySize=auto;html=1;entryX=0;entryY=0.5;entryDx=0;entryDy=0;" edge="1" parent="1">
          <mxGeometry relative="1" as="geometry">
            <mxPoint x="60" y="184.5" as="targetPoint" />
            <Array as="points">
              <mxPoint x="20" y="184.5" />
            </Array>
            <mxPoint x="20" y="184.5" as="sourcePoint" />
          </mxGeometry>
        </mxCell>
        <mxCell id="U3d2GX4V-Grrhq8g660X-37" style="edgeStyle=orthogonalEdgeStyle;rounded=0;orthogonalLoop=1;jettySize=auto;html=1;entryX=0;entryY=0.5;entryDx=0;entryDy=0;" edge="1" parent="1">
          <mxGeometry relative="1" as="geometry">
            <mxPoint x="60" y="294.5" as="targetPoint" />
            <Array as="points">
              <mxPoint x="20" y="294.5" />
            </Array>
            <mxPoint x="20" y="294.5" as="sourcePoint" />
          </mxGeometry>
        </mxCell>
        <mxCell id="U3d2GX4V-Grrhq8g660X-56" style="edgeStyle=orthogonalEdgeStyle;rounded=0;orthogonalLoop=1;jettySize=auto;html=1;exitX=0.5;exitY=1;exitDx=0;exitDy=0;entryX=1;entryY=0.5;entryDx=0;entryDy=0;" edge="1" parent="1" source="U3d2GX4V-Grrhq8g660X-51" target="U3d2GX4V-Grrhq8g660X-3">
          <mxGeometry relative="1" as="geometry" />
        </mxCell>
        <mxCell id="U3d2GX4V-Grrhq8g660X-51" value="UP:1&lt;br&gt;DOWN: 0" style="rounded=1;whiteSpace=wrap;html=1;arcSize=0;" vertex="1" parent="1">
          <mxGeometry x="450" y="360" width="90" height="50" as="geometry" />
        </mxCell>
      </root>
    </mxGraphModel>
  </diagram>
</mxfile>
